<svg xmlns="http://www.w3.org/2000/svg" xmlns:xlink="http://www.w3.org/1999/xlink" width="180" height="180"><defs><path id="a" d="M0 0h180v180H0z"/></defs><g fill="none" fill-rule="evenodd"><use xlink:href="#a" fill="#FFF"/><path fill="#000" d="M83.535 166.523a75.6 75.6 0 0 1-8.838 7Q65.083 180 52.91 180q-16.743 0-24.827-15.237T20 125.334q0-23.238 5.992-52.956 5.994-29.712 17.694-51.046Q55.386 0 71.556 0q9.13 0 14.364 8.476 5.232 8.477 5.232 24.284 0 22.668-12.557 52.573Q66.04 115.235 44.54 144.57q1.336 7.808 4.378 11.142t7.992 3.333q7.8 0 13.696-4.476 4.702-3.57 11.459-11.196a524 524 0 0 1-.045-7.184q0-29.335 5.994-61.144 5.99-31.808 17.692-53.43Q117.405.001 133.767 0q8.748 0 14.172 7.524 5.423 7.524 5.423 19.523-.002 19.238-11.225 39.906-11.225 20.666-36.527 48.287a355 355 0 0 0-.57 20.377q6.276-16.187 13.983-26.379 7.704-10.19 15.22-14.572 7.515-4.38 13.791-4.38 6.087 0 9.227 3.141 3.14 3.147 3.139 9.24 0 4.95-2.092 18.666a421 421 0 0 0-3.045 22.001q-1.14 10.38-1.14 23.143 0 7.236-2.948 10.38-2.95 3.143-9.612 3.143-6.274 0-9.13-3.24-2.854-3.234-2.854-9.713 0-7.617 2.664-25.142 2.286-15.237 2.286-19.428 0-3.048-2.096-3.047-2.47-.002-7.038 6.38-4.566 6.38-9.133 16.856a137 137 0 0 0-7.418 22.097q-2.092 8.952-4.852 12.094Q101.236 180 95.337 180q-5.897 0-8.658-4.284-2.091-3.255-3.144-9.193M68.28 16.875q-4.167 0-9.422 16.006-5.25 16.008-9.239 39.73-3.984 23.722-4.347 45.514 12.863-22.566 20.471-45.227 7.61-22.658 7.609-41.367 0-14.658-5.072-14.656m61.545 2.813q-3.537 0-7.853 9.882-4.32 9.885-8.347 26.68t-6.577 36.563a137 137 0 0 0 20.128-30.519q7.952-16.506 7.952-29.94 0-6.14-1.375-9.406-1.375-3.261-3.93-3.261z"/></g></svg>